<svg xmlns="http://www.w3.org/2000/svg" viewBox="0 0 1200 750" role="img" aria-labelledby="t d"><title id="t">当 AI 越改越乱预览</title><desc id="d">黑色终端界面与红色状态数据</desc><rect width="1200" height="750" fill="#070707"/><g stroke="#33221e" stroke-width="1"><path d="M0 75h1200M0 150h1200M0 225h1200M0 300h1200M0 375h1200M0 450h1200M0 525h1200M0 600h1200M0 675h1200"/><path d="M120 0v750M240 0v750M360 0v750M480 0v750M600 0v750M720 0v750M840 0v750M960 0v750M1080 0v750"/></g><text x="60" y="70" fill="#ff3b1f" font-family="monospace" font-size="18" letter-spacing="5">CASE 01 · DEBUG PROTOCOL</text><text x="60" y="185" fill="#f4f1e9" font-family="Arial Black,Arial" font-size="72" font-weight="900">当 AI 越改越乱</text><rect x="60" y="245" width="1080" height="380" fill="#111" stroke="#555"/><text x="95" y="295" fill="#999" font-family="monospace" font-size="16">SESSION / LOCAL SIMULATION</text><text x="95" y="365" fill="#ddd" font-family="monospace" font-size="22">&gt; 暂停修改，读取原始错误与文件差异</text><text x="95" y="410" fill="#ddd" font-family="monospace" font-size="22">&gt; 恢复最后一次已验证的检查点</text><g font-family="Arial Black,Arial" font-weight="900"><text x="95" y="540" fill="#ff3b1f" font-size="68">12</text><text x="410" y="540" fill="#ff3b1f" font-size="68">18</text><text x="730" y="540" fill="#ff3b1f" font-size="68">45</text></g><g fill="#999" font-family="monospace" font-size="14"><text x="95" y="575">CHANGE SCOPE</text><text x="410" y="575">CONTEXT NOISE</text><text x="730" y="575">EVIDENCE</text></g></svg>
