<svg xmlns="http://www.w3.org/2000/svg" viewBox="0 0 1200 750" role="img" aria-labelledby="t d"><title id="t">AI 内容生产线预览</title><desc id="d">蓝色工程图风格的七阶段内容流程</desc><rect width="1200" height="750" fill="#071528"/><g stroke="#21466a" stroke-width="1"><path d="M0 75h1200M0 150h1200M0 225h1200M0 300h1200M0 375h1200M0 450h1200M0 525h1200M0 600h1200M0 675h1200"/><path d="M75 0v750M150 0v750M225 0v750M300 0v750M375 0v750M450 0v750M525 0v750M600 0v750M675 0v750M750 0v750M825 0v750M900 0v750M975 0v750M1050 0v750M1125 0v750"/></g><text x="60" y="70" fill="#58aaff" font-family="monospace" font-size="18" letter-spacing="5">CASE 02 · CONTENT SYSTEM</text><text x="60" y="185" fill="#ecf5ff" font-family="Arial Black,Arial" font-size="78" font-weight="900">AI 内容生产线</text><g font-family="Arial, sans-serif" font-size="22" text-anchor="middle"><g fill="#58aaff"><rect x="55" y="300" width="145" height="170"/><text x="127" y="390" fill="#071528">立项</text></g><g fill="#0b2039" stroke="#58aaff"><rect x="212" y="300" width="145" height="170"/><rect x="369" y="300" width="145" height="170"/><rect x="526" y="300" width="145" height="170"/><rect x="683" y="300" width="145" height="170"/><rect x="840" y="300" width="145" height="170"/><rect x="997" y="300" width="145" height="170"/></g><g fill="#ecf5ff"><text x="284" y="390">资料</text><text x="441" y="390">结构</text><text x="598" y="390">初稿</text><text x="755" y="390">编辑</text><text x="912" y="390">检查</text><text x="1069" y="390">准备</text></g></g><text x="60" y="590" fill="#8cb7dc" font-family="monospace" font-size="18">INPUT → OUTPUT → FAILURE → HUMAN DECISION</text></svg>
